<?xml version="1.0" standalone="no"?>
<!DOCTYPE svg PUBLIC "-//W3C//DTD SVG 20010904//EN"
 "http://www.w3.org/TR/2001/REC-SVG-20010904/DTD/svg10.dtd">
<svg version="1.0" xmlns="http://www.w3.org/2000/svg"
 width="260.000000pt" height="265.000000pt" viewBox="0 0 260.000000 265.000000"
 preserveAspectRatio="xMidYMid meet">

<g transform="translate(0.000000,265.000000) scale(0.100000,-0.100000)"
fill="#000000" stroke="none">
<path d="M1125 2639 c-154 -21 -351 -89 -479 -166 -326 -195 -542 -499 -622
-874 -25 -115 -25 -370 -1 -491 55 -276 183 -507 385 -699 179 -171 384 -277
642 -335 109 -25 386 -25 499 0 522 113 909 494 1022 1006 31 138 33 389 5
519 -59 273 -167 473 -361 666 -194 195 -406 309 -668 361 -99 19 -325 26
-422 13z m456 -162 c431 -113 741 -428 852 -865 31 -126 31 -398 0 -524 -80
-314 -261 -564 -527 -729 -98 -60 -200 -103 -325 -137 -87 -24 -113 -26 -281
-26 -167 0 -194 3 -281 26 -432 117 -743 432 -850 861 -26 106 -36 315 -20
427 74 503 448 890 953 986 117 22 359 12 479 -19z"/>
<path d="M818 1995 l-86 -215 62 0 63 0 -48 -202 c-27 -112 -47 -207 -46 -211
1 -5 82 115 180 265 l178 273 -56 3 c-34 2 -55 7 -55 15 0 7 22 64 49 127 75
179 81 160 -46 160 l-109 0 -86 -215z"/>
<path d="M1563 2002 c-46 -114 -83 -210 -83 -214 0 -4 26 -8 58 -10 l59 -3
-48 -204 c-27 -113 -47 -206 -45 -208 3 -3 346 518 354 539 2 4 -21 8 -52 8
-32 0 -56 4 -56 10 0 6 25 70 55 142 30 72 55 135 55 139 0 5 -48 9 -107 9
l-108 0 -82 -208z"/>
<path d="M495 1297 c-97 -36 -199 -114 -210 -160 -14 -54 39 -91 96 -70 26 10
28 9 34 -21 11 -54 82 -189 128 -244 248 -299 736 -378 1172 -190 199 86 387
264 455 434 l21 51 43 -4 c35 -4 48 -1 65 16 11 11 21 29 21 40 0 61 -133 133
-286 155 -33 5 -47 1 -68 -15 -49 -39 -22 -119 42 -119 51 0 58 -12 38 -64
-80 -210 -329 -386 -623 -442 -109 -20 -336 -15 -428 11 -95 26 -215 89 -279
147 -90 80 -161 201 -181 310 -6 33 -5 35 34 46 22 7 47 19 56 28 36 36 3 115
-47 113 -13 0 -50 -10 -83 -22z"/>
</g>
</svg>
