<?xml version="1.0" standalone="no"?>
<!DOCTYPE svg PUBLIC "-//W3C//DTD SVG 20010904//EN"
 "http://www.w3.org/TR/2001/REC-SVG-20010904/DTD/svg10.dtd">
<svg version="1.0" xmlns="http://www.w3.org/2000/svg"
 width="2400.000000pt" height="1800.000000pt" viewBox="0 0 2400.000000 1800.000000"
 preserveAspectRatio="xMidYMid meet">

<g transform="translate(0.000000,1800.000000) scale(0.100000,-0.100000)"
fill="#000000" stroke="none">
<path d="M11680 15499 c-696 -39 -1481 -211 -2121 -464 -647 -256 -1239 -614
-1774 -1071 -195 -167 -568 -539 -730 -729 -276 -325 -539 -701 -735 -1050
-459 -819 -722 -1670 -812 -2630 -20 -216 -17 -913 5 -1135 111 -1102 467
-2097 1080 -3015 1045 -1567 2703 -2610 4518 -2844 298 -38 436 -46 829 -46
389 0 488 6 815 46 1887 233 3627 1305 4670 2879 162 245 266 426 400 695 198
400 345 787 450 1190 352 1341 267 2797 -235 4050 -422 1053 -1026 1891 -1885
2616 -521 440 -1203 841 -1860 1094 -836 322 -1735 464 -2615 414z m830 -504
c91 -8 217 -22 280 -30 1363 -182 2611 -823 3554 -1823 1230 -1307 1817 -3066
1615 -4838 -80 -707 -290 -1395 -619 -2030 -576 -1112 -1490 -2024 -2608
-2602 -674 -348 -1353 -550 -2142 -637 -320 -36 -896 -31 -1270 11 -1757 195
-3348 1167 -4337 2649 -234 351 -420 703 -578 1095 -465 1154 -549 2454 -240
3690 85 338 188 639 332 965 367 830 935 1583 1637 2169 566 473 1223 845
1901 1076 581 199 1020 282 1720 324 123 8 596 -4 755 -19z"/>
<path d="M10153 12655 c-97 -21 -217 -89 -305 -173 -207 -197 -334 -496 -405
-952 -15 -94 -18 -175 -18 -440 1 -286 4 -342 23 -470 96 -614 296 -1022 567
-1156 71 -35 86 -39 174 -42 112 -4 179 13 288 73 84 47 204 165 268 264 257
397 355 1098 249 1781 -84 541 -283 943 -532 1073 -108 56 -191 68 -309 42z"/>
<path d="M13676 12655 c-203 -52 -394 -230 -522 -490 -105 -214 -165 -430
-199 -721 -20 -172 -20 -541 1 -727 63 -582 258 -1037 520 -1217 69 -49 166
-80 247 -80 218 0 424 138 574 387 251 414 329 1171 193 1853 -121 607 -380
989 -682 1006 -45 2 -95 -2 -132 -11z"/>
<path d="M6980 9241 c-161 -15 -256 -61 -299 -146 -23 -43 -26 -62 -26 -145 0
-88 2 -100 28 -138 52 -79 121 -98 397 -111 107 -5 207 -14 221 -20 22 -8 28
-18 34 -58 54 -371 199 -950 337 -1343 470 -1343 1295 -2296 2398 -2772 539
-233 1101 -348 1780 -365 1031 -25 1968 224 2710 720 687 460 1290 1243 1643
2132 200 502 316 925 422 1534 14 80 30 150 35 155 7 7 89 11 224 11 l214 1
73 36 c41 20 89 50 107 65 33 27 34 31 39 123 7 126 -11 193 -66 243 -70 63
-51 62 -866 62 -685 0 -743 -1 -784 -18 -106 -42 -150 -106 -151 -218 0 -146
59 -240 175 -276 51 -15 92 -18 263 -17 l202 1 0 -36 c0 -53 -26 -258 -50
-391 -157 -872 -681 -1907 -1277 -2523 -576 -595 -1376 -951 -2358 -1048 -162
-17 -639 -17 -800 -1 -590 59 -1088 198 -1550 431 -560 284 -927 627 -1338
1251 -430 654 -720 1409 -811 2115 -9 66 -18 136 -21 156 l-5 36 218 6 c119 3
236 11 259 17 100 29 173 137 173 258 0 121 -58 205 -162 236 -109 32 -199 36
-666 34 -257 -1 -505 1 -552 4 -47 3 -123 3 -170 -1z"/>
</g>
</svg>
